<svg width="48" height="48" viewBox="0 0 48 48" fill="none" xmlns="http://www.w3.org/2000/svg">
<path d="M20.145 29.115C18.6084 28.3866 17.3095 27.2378 16.3989 25.8015C15.4884 24.3653 15.0033 22.7005 15 21C15 20.6022 14.842 20.2206 14.5607 19.9393C14.2794 19.658 13.8978 19.5 13.5 19.5V16.5C13.8978 16.5 14.2794 16.342 14.5607 16.0607C14.842 15.7794 15 15.3978 15 15V12C15 9.61305 15.9482 7.32387 17.636 5.63604C19.3239 3.94821 21.6131 3 24 3C26.3869 3 28.6761 3.94821 30.364 5.63604C32.0518 7.32387 33 9.61305 33 12V15C33 15.3978 33.158 15.7794 33.4393 16.0607C33.7206 16.342 34.1022 16.5 34.5 16.5V19.5H37.5V16.5C37.4995 15.9739 37.3606 15.4572 37.0973 15.0017C36.834 14.5463 36.4556 14.168 36 13.905V12C36 8.8174 34.7357 5.76516 32.4853 3.51472C30.2348 1.26428 27.1826 0 24 0C20.8174 0 17.7652 1.26428 15.5147 3.51472C13.2643 5.76516 12 8.8174 12 12V13.905C11.5444 14.168 11.166 14.5463 10.9027 15.0017C10.6394 15.4572 10.5005 15.9739 10.5 16.5V19.5C10.4952 20.0312 10.6316 20.5541 10.8952 21.0153C11.1587 21.4765 11.54 21.8594 12 22.125C12.1978 24.03 12.8448 25.8609 13.8879 27.4672C14.9309 29.0734 16.3402 30.4093 18 31.365V33.45L7.05 37.5C5.685 37.845 0 39.555 0 43.5V46.5C0 46.8978 0.158035 47.2794 0.43934 47.5607C0.720644 47.842 1.10218 48 1.5 48H21V45H3V43.5C3 42.33 5.88 40.95 7.86 40.5H8.025L20.025 36C20.3271 35.8879 20.585 35.6814 20.7606 35.4113C20.9362 35.1411 21.0201 34.8216 21 34.5V30.465C20.9992 30.1823 20.9185 29.9055 20.7672 29.6667C20.616 29.4278 20.4003 29.2366 20.145 29.115Z" fill="black"/>
<path d="M45 37.5V42H27V27H31.5V24H27C26.2044 24 25.4413 24.3161 24.8787 24.8787C24.3161 25.4413 24 26.2044 24 27V42C24 42.7956 24.3161 43.5587 24.8787 44.1213C25.4413 44.6839 26.2044 45 27 45H45C45.7956 45 46.5587 44.6839 47.1213 44.1213C47.6839 43.5587 48 42.7956 48 42V37.5H45Z" fill="black"/>
<path d="M31.0652 31.9351L28.9502 34.0501L33.4502 38.5501C33.7312 38.8294 34.1114 38.9862 34.5077 38.9862C34.904 38.9862 35.2842 38.8294 35.5652 38.5501L46.0652 28.0501L43.9502 25.9351L34.5002 35.3851L31.0652 31.9351Z" fill="black"/>
</svg>
