<svg width="52" height="52" viewBox="0 0 52 52" fill="none" xmlns="http://www.w3.org/2000/svg">
<path d="M25.9807 52C21.2083 51.9983 16.5293 50.6774 12.4607 48.1832C12.126 47.9776 11.8422 47.6989 11.6307 47.368C11.4191 47.037 11.2853 46.6625 11.2393 46.2724C11.1932 45.8824 11.2362 45.4869 11.3648 45.1158C11.4935 44.7447 11.7046 44.4076 11.9823 44.1298L26.7502 29.3618C27.2378 28.8744 27.899 28.6006 28.5884 28.6006C29.2779 28.6006 29.9391 28.8744 30.4266 29.3618L31.1884 30.1236V20.8H21.8571L22.6189 21.5618C23.1063 22.0494 23.3801 22.7106 23.3801 23.4C23.3801 24.0894 23.1063 24.7506 22.6189 25.2382L7.85087 40.0062C7.57286 40.2842 7.23542 40.4956 6.86394 40.6243C6.49246 40.7531 6.09661 40.796 5.70618 40.7496C5.31575 40.7034 4.94091 40.5691 4.60985 40.357C4.27879 40.1449 4.00014 39.8605 3.79487 39.5252C0.803487 34.6141 -0.475362 28.8498 0.158442 23.1343C0.792246 17.4189 3.30294 12.0749 7.29765 7.93845C11.2923 3.80202 16.5457 1.10661 22.2355 0.274009C27.9254 -0.55859 33.7307 0.518598 38.7431 3.33701C43.7555 6.15543 47.6922 10.556 49.937 15.8502C52.1819 21.1444 52.6083 27.0334 51.1495 32.5958C49.6907 38.1581 46.429 43.0799 41.8749 46.591C37.3207 50.102 31.7311 52.0043 25.9807 52ZM18.1807 45.2738C22.6314 47.0766 27.5686 47.2851 32.1555 45.8641C36.7424 44.443 40.6969 41.4797 43.3488 37.4765C46.0008 33.4732 47.187 28.6761 46.7066 23.8982C46.2261 19.1203 44.1085 14.6555 40.7126 11.2603C37.3167 7.86521 32.8514 5.74861 28.0734 5.26924C23.2954 4.78988 18.4986 5.97723 14.4959 8.63009C10.4932 11.2829 7.53085 15.2381 6.11082 19.8253C4.69079 24.4126 4.90045 29.3497 6.70427 33.8L17.1043 23.4L13.7425 20.0382C13.379 19.6746 13.1314 19.2114 13.0311 18.7071C12.9309 18.2028 12.9824 17.6801 13.1791 17.2051C13.3758 16.7301 13.709 16.3241 14.1365 16.0384C14.5639 15.7527 15.0665 15.6001 15.5807 15.6H33.7806C34.4702 15.6 35.1315 15.8739 35.6191 16.3615C36.1067 16.8491 36.3806 17.5105 36.3806 18.2V36.4C36.3805 36.9142 36.228 37.4167 35.9423 37.8442C35.6566 38.2717 35.2506 38.6048 34.7755 38.8016C34.3005 38.9983 33.7778 39.0498 33.2736 38.9495C32.7693 38.8492 32.3061 38.6017 31.9424 38.2382L28.5807 34.8764L18.1807 45.2738Z" fill="#EF212E"/>
</svg>
