<svg width="20" height="20" viewBox="0 0 20 20" fill="none" xmlns="http://www.w3.org/2000/svg">
<path opacity="0.4" d="M13.7362 0.833374H16.84C18.1254 0.833374 19.1669 1.88374 19.1669 3.18001V6.31002C19.1669 7.60629 18.1254 8.65665 16.84 8.65665H13.7362C12.4507 8.65665 11.4092 7.60629 11.4092 6.31002V3.18001C11.4092 1.88374 12.4507 0.833374 13.7362 0.833374Z" fill="#005E39"/>
<path fill-rule="evenodd" clip-rule="evenodd" d="M3.16048 0.833374H6.26428C7.54969 0.833374 8.59126 1.88374 8.59126 3.18001V6.31002C8.59126 7.60629 7.54969 8.65665 6.26428 8.65665H3.16048C1.87506 8.65665 0.833496 7.60629 0.833496 6.31002V3.18001C0.833496 1.88374 1.87506 0.833374 3.16048 0.833374ZM3.16048 11.3434H6.26428C7.54969 11.3434 8.59126 12.3938 8.59126 13.6901V16.8201C8.59126 18.1155 7.54969 19.1667 6.26428 19.1667H3.16048C1.87506 19.1667 0.833496 18.1155 0.833496 16.8201V13.6901C0.833496 12.3938 1.87506 11.3434 3.16048 11.3434ZM16.8398 11.3434H13.736C12.4506 11.3434 11.4091 12.3938 11.4091 13.6901V16.8201C11.4091 18.1155 12.4506 19.1667 13.736 19.1667H16.8398C18.1253 19.1667 19.1668 18.1155 19.1668 16.8201V13.6901C19.1668 12.3938 18.1253 11.3434 16.8398 11.3434Z" fill="#005E39"/>
</svg>
