<svg width="22" height="22" viewBox="0 0 22 22" fill="none" xmlns="http://www.w3.org/2000/svg">
<path opacity="0.4" d="M14.7362 1.83337H17.84C19.1254 1.83337 20.1669 2.88374 20.1669 4.18001V7.31002C20.1669 8.60629 19.1254 9.65665 17.84 9.65665H14.7362C13.4507 9.65665 12.4092 8.60629 12.4092 7.31002V4.18001C12.4092 2.88374 13.4507 1.83337 14.7362 1.83337Z" fill="white"/>
<path fill-rule="evenodd" clip-rule="evenodd" d="M4.16048 1.83337H7.26428C8.54969 1.83337 9.59126 2.88374 9.59126 4.18001V7.31002C9.59126 8.60629 8.54969 9.65665 7.26428 9.65665H4.16048C2.87506 9.65665 1.8335 8.60629 1.8335 7.31002V4.18001C1.8335 2.88374 2.87506 1.83337 4.16048 1.83337ZM4.16048 12.3434H7.26428C8.54969 12.3434 9.59126 13.3938 9.59126 14.6901V17.8201C9.59126 19.1155 8.54969 20.1667 7.26428 20.1667H4.16048C2.87506 20.1667 1.8335 19.1155 1.8335 17.8201V14.6901C1.8335 13.3938 2.87506 12.3434 4.16048 12.3434ZM17.8398 12.3434H14.736C13.4506 12.3434 12.4091 13.3938 12.4091 14.6901V17.8201C12.4091 19.1155 13.4506 20.1667 14.736 20.1667H17.8398C19.1253 20.1667 20.1668 19.1155 20.1668 17.8201V14.6901C20.1668 13.3938 19.1253 12.3434 17.8398 12.3434Z" fill="white"/>
</svg>
