<svg width="35" height="35" viewBox="0 0 35 35" fill="none" xmlns="http://www.w3.org/2000/svg">
<path d="M19.7854 29.3622C23.5304 29.3622 27.122 27.8746 29.7701 25.2264C32.4183 22.5783 33.9059 18.9867 33.9059 15.2417C33.9059 11.4967 32.4183 7.90513 29.7701 5.25702C27.122 2.60891 23.5304 1.12122 19.7854 1.12122C16.0404 1.12122 12.4488 2.60891 9.80072 5.25702C7.15261 7.90513 5.66492 11.4967 5.66492 15.2417C5.66492 18.9867 7.15261 22.5783 9.80072 25.2264C12.4488 27.8746 16.0404 29.3622 19.7854 29.3622Z" fill="#005E39" fill-opacity="0.3"/>
<path d="M15.2143 5.66489C17.0686 5.66489 18.9048 6.03012 20.618 6.73975C22.3311 7.44937 23.8878 8.48948 25.199 9.80069C26.5102 11.1119 27.5503 12.6685 28.2599 14.3817C28.9695 16.0949 29.3348 17.9311 29.3348 19.7854C29.3348 23.5304 27.8471 27.122 25.199 29.7701C22.5509 32.4182 18.9593 33.9059 15.2143 33.9059C11.4693 33.9059 7.87766 32.4182 5.22955 29.7701C2.58144 27.122 1.09375 23.5304 1.09375 19.7854C1.09375 16.0404 2.58144 12.4488 5.22955 9.80069C7.87766 7.15258 11.4693 5.66489 15.2143 5.66489Z" fill="#005E39"/>
<path d="M20.6046 13.0615L13.1729 18.5496L9.73349 17.0536C7.53288 15.9282 5.53492 17.7497 6.81693 19.9701L10.741 25.8379C11.8149 27.3427 14.3853 27.4276 15.6012 25.8379L23.5175 15.9781C25.0866 13.8533 22.6138 11.5428 20.6046 13.0615Z" fill="white"/>
</svg>
