<svg width="35" height="35" viewBox="0 0 35 35" fill="none" xmlns="http://www.w3.org/2000/svg">
<path d="M3.8281 12.9198H31.1716C32.6864 12.9198 33.9059 14.1393 33.9059 15.6541V27.3435C33.9059 28.8583 32.6864 30.0778 31.1716 30.0778H3.8281C2.31327 30.0778 1.09375 28.8583 1.09375 27.3435V15.6541C1.09375 14.1393 2.31327 12.9198 3.8281 12.9198Z" fill="#005E39" fill-opacity="0.64"/>
<path d="M8.51072 1.09373C6.99589 1.09373 5.77637 2.31325 5.77637 3.82808V18.3897C5.77637 19.1471 6.38613 19.7568 7.14354 19.7568H27.8562C28.6136 19.7568 29.2234 19.1471 29.2234 18.3897V3.82808C29.2234 2.31325 28.0039 1.09373 26.4891 1.09373H8.51072Z" fill="#005E39" fill-opacity="0.23"/>
<path d="M11.1773 22.9784C10.422 22.9777 9.80915 23.5896 9.80884 24.3449C9.80924 25.1002 10.422 25.7121 11.1773 25.7114H23.8244C24.579 25.711 25.1906 25.0995 25.1909 24.3449C25.1906 23.5904 24.579 22.9788 23.8244 22.9784H11.1773Z" fill="white"/>
<path d="M17.4998 3.82867C13.8566 3.82867 10.9032 6.78208 10.9032 10.4253C10.9032 14.0685 13.8566 17.0219 17.4998 17.0219C21.143 17.0219 24.0964 14.0685 24.0964 10.4253C24.0964 6.78208 21.143 3.82867 17.4998 3.82867Z" fill="#005E39"/>
<path d="M20.1767 7.08622L16.4861 9.81158L14.7781 9.06866C13.6853 8.50982 12.6931 9.41436 13.3297 10.517L15.2784 13.4309C15.8117 14.1783 17.0882 14.2204 17.692 13.4309L21.6232 8.53456C22.4025 7.47943 21.1744 6.33199 20.1767 7.08622Z" fill="white"/>
</svg>
