<svg width="35" height="35" viewBox="0 0 35 35" fill="none" xmlns="http://www.w3.org/2000/svg">
<path d="M27.8845 14.949C27.792 12.2566 26.6574 9.70539 24.7201 7.83343C22.7827 5.96147 20.194 4.91514 17.5 4.91514C14.806 4.91514 12.2173 5.96147 10.2799 7.83343C8.34257 9.70539 7.20798 12.2566 7.1155 14.949C5.27097 15.3513 3.64026 16.4213 2.53686 17.9531C1.43346 19.485 0.935259 21.3707 1.13804 23.2477C1.34082 25.1246 2.23027 26.8604 3.63539 28.1213C5.04051 29.3821 6.86211 30.0791 8.75 30.0781H14.2187C14.0737 30.0781 13.9346 30.0205 13.832 29.9179C13.7295 29.8154 13.6719 29.6763 13.6719 29.5312V21.875H10.9375C10.8312 21.875 10.7272 21.844 10.6382 21.7859C10.5493 21.7277 10.4792 21.6449 10.4365 21.5475C10.3939 21.4501 10.3806 21.3424 10.3982 21.2376C10.4157 21.1328 10.4635 21.0353 10.5356 20.9572L17.0981 13.8479C17.1506 13.7946 17.2132 13.7522 17.2822 13.7234C17.3512 13.6945 17.4252 13.6796 17.5001 13.6796C17.5749 13.6796 17.6489 13.6945 17.7179 13.7234C17.7869 13.7522 17.8495 13.7946 17.902 13.8479L24.4645 20.9572C24.5366 21.0354 24.5844 21.1328 24.602 21.2376C24.6195 21.3425 24.6062 21.4502 24.5635 21.5475C24.5209 21.6449 24.4508 21.7277 24.3618 21.7859C24.2728 21.8441 24.1688 21.875 24.0625 21.875H21.3281V29.5312C21.3281 29.6763 21.2705 29.8154 21.1679 29.9179C21.0654 30.0205 20.9263 30.0781 20.7812 30.0781H26.25C28.1379 30.0791 29.9595 29.3821 31.3646 28.1213C32.7697 26.8604 33.6592 25.1246 33.862 23.2477C34.0647 21.3707 33.5665 19.485 32.4631 17.9531C31.3597 16.4213 29.729 15.3513 27.8845 14.949Z" fill="#005E39"/>
<path opacity="0.1" d="M27.8845 14.949C27.7871 12.2589 26.6508 9.71124 24.7143 7.84139C22.7778 5.97153 20.1919 4.92506 17.5 4.92188V13.6796C17.575 13.6786 17.6493 13.6929 17.7185 13.7219C17.7876 13.7508 17.8501 13.7937 17.9019 13.8479L24.4644 20.9572C24.5365 21.0353 24.5843 21.1328 24.6018 21.2376C24.6194 21.3424 24.6061 21.4501 24.5635 21.5475C24.5208 21.6449 24.4507 21.7277 24.3618 21.7859C24.2728 21.844 24.1688 21.875 24.0625 21.875H21.3281V29.5312C21.3281 29.6763 21.2705 29.8154 21.1679 29.9179C21.0654 30.0205 20.9263 30.0781 20.7812 30.0781H26.25C28.1379 30.0791 29.9595 29.3821 31.3646 28.1213C32.7697 26.8604 33.6592 25.1246 33.862 23.2477C34.0647 21.3707 33.5665 19.485 32.4631 17.9531C31.3597 16.4213 29.729 15.3513 27.8845 14.949Z" fill="black"/>
</svg>
