<svg width="22" height="22" viewBox="0 0 22 22" fill="none" xmlns="http://www.w3.org/2000/svg">
<path d="M11 0C4.93477 0 0 4.93477 0 11C0 17.0652 4.93477 22 11 22C17.0652 22 22 17.0652 22 11C22 4.93477 17.0652 0 11 0ZM11 1.69231C16.1497 1.69231 20.3077 5.85031 20.3077 11C20.3077 16.1497 16.1497 20.3077 11 20.3077C5.85031 20.3077 1.69231 16.1497 1.69231 11C1.69231 5.85031 5.85031 1.69231 11 1.69231ZM10.9205 5.92308C8.10785 5.92308 5.84354 8.18738 5.84354 11C5.84354 13.8126 8.10785 16.0769 10.9205 16.0769C12.9504 16.0769 14.6858 14.8602 15.4948 13.1416L13.9615 12.4283C13.4158 13.5875 12.276 14.3846 10.9205 14.3846C8.99377 14.3846 7.53585 12.9267 7.53585 11C7.53585 9.07331 8.99377 7.61538 10.9205 7.61538C12.276 7.61538 13.4166 8.41162 13.9615 9.57254L15.4956 8.85838C14.685 7.13985 12.9504 5.92308 10.9196 5.92308H10.9205Z" fill="#222B45"/>
</svg>
