<svg width="17" height="16" viewBox="0 0 17 16" fill="none" xmlns="http://www.w3.org/2000/svg">
<path opacity="0.4" d="M13.0873 4.27612C15.0543 4.27612 16.6553 5.90679 16.6553 7.91101V11.8949C16.6553 13.8942 15.0583 15.5208 13.0953 15.5208L4.17459 15.5208C2.20683 15.5208 0.605019 13.891 0.605019 11.8867V7.90283C0.605019 5.90353 2.20282 4.27612 4.16657 4.27612L4.92093 4.27612L13.0873 4.27612Z" fill="#005E39"/>
<path d="M9.06911 11.1962L11.4036 8.84664C11.6444 8.6038 11.6444 8.213 11.402 7.97097C11.1597 7.72974 10.7688 7.73054 10.5281 7.97258L9.24967 9.25914L9.24967 1.09829C9.24967 0.756542 8.97281 0.479126 8.63094 0.479126C8.28987 0.479126 8.0138 0.756542 8.0138 1.09829L8.0138 9.25914L6.7346 7.97258C6.49384 7.73054 6.10302 7.72974 5.86066 7.97097C5.73948 8.09239 5.67849 8.2508 5.67849 8.41001C5.67849 8.56761 5.73948 8.72602 5.85906 8.84664L8.19357 11.1962C8.30993 11.3128 8.46722 11.3788 8.63094 11.3788C8.79545 11.3788 8.95274 11.3128 9.06911 11.1962Z" fill="#005E39"/>
</svg>
