<svg width="35" height="35" viewBox="0 0 35 35" fill="none" xmlns="http://www.w3.org/2000/svg">
<path d="M20.5402 10.3529C19.7089 10.9631 18.5539 9.53616 17.5227 9.54123C16.4915 9.54632 15.3505 10.9846 14.5133 10.3826C13.6761 9.78057 14.6763 8.24106 14.3529 7.26194C14.0294 6.28282 12.309 5.64211 12.6228 4.65986C12.9366 3.67761 14.7098 4.15312 15.5411 3.54292C16.3723 2.93272 16.45 1.09848 17.4812 1.09341C18.5123 1.08833 18.6081 2.92174 19.4453 3.52373C20.2825 4.12573 22.0509 3.63282 22.3744 4.61194C22.6979 5.59104 20.9838 6.24864 20.67 7.23089C20.3561 8.21314 21.3714 9.74275 20.5402 10.3529Z" fill="#005E39" fill-opacity="0.25"/>
<path d="M29.1979 20.6038C29.1979 25.272 32.9571 24.4961 33.3148 27.3722L33.8939 32.0279C34.0223 33.0599 33.4864 33.905 32.4464 33.905H22.5411C21.5011 33.905 20.9652 33.0599 21.0936 32.0279L21.6727 27.3722C22.0304 24.4961 25.6679 25.272 25.6679 20.6038L27.3217 21.3778L29.1979 20.6038Z" fill="#005E39" fill-opacity="0.35"/>
<path d="M23.0863 17.5008C23.0863 19.84 24.9826 22.6822 27.3217 22.6822C29.6609 22.6822 31.5572 19.84 31.5572 17.5008C31.5572 15.1616 29.6609 13.2654 27.3217 13.2654C24.9826 13.2654 23.0863 15.1616 23.0863 17.5008ZM5.80177 20.6038C5.80177 25.272 2.04257 24.496 1.68493 27.3722L1.10578 32.0278C0.977446 33.0599 1.51329 33.905 2.55331 33.905H12.4586C13.4986 33.905 14.0345 33.0599 13.9061 32.0278L13.327 27.3722C12.9693 24.496 9.33176 25.272 9.33176 20.6038L7.67795 21.3778L5.80177 20.6038Z" fill="#005E39" fill-opacity="0.35"/>
<path d="M11.9134 17.5008C11.9134 19.84 10.0171 22.6822 7.67793 22.6822C5.33877 22.6822 3.4425 19.84 3.4425 17.5008C3.4425 15.1616 5.33877 13.2654 7.67793 13.2654C10.0171 13.2654 11.9134 15.1616 11.9134 17.5008Z" fill="#005E39" fill-opacity="0.35"/>
<path d="M15.6255 19.106C15.6255 24.2998 11.443 23.4365 11.0451 26.6365L10.4007 31.8165C10.258 32.9647 10.8541 33.905 12.0113 33.905H23.032C24.1891 33.905 24.7853 32.9647 24.6425 31.8165L23.9981 26.6365C23.6002 23.4365 19.553 24.2998 19.553 19.106L17.713 19.9671L15.6255 19.106Z" fill="#005E39" fill-opacity="0.78"/>
<path d="M22.2339 15.6536C22.2339 18.2561 20.1241 21.4184 17.5216 21.4184C14.919 21.4184 12.8092 18.2561 12.8092 15.6536C12.8092 13.051 14.919 10.9412 17.5216 10.9412C20.1241 10.9412 22.2339 13.051 22.2339 15.6536Z" fill="#005E39" fill-opacity="0.35"/>
<path d="M9.43802 12.5016C8.83679 12.943 8.00135 11.9108 7.25552 11.9145C6.5097 11.9182 5.68444 12.9584 5.07891 12.523C4.47337 12.0876 5.1968 10.9741 4.96284 10.2659C4.72889 9.55775 3.48451 9.09433 3.71149 8.38389C3.93847 7.67344 5.22103 8.01737 5.82225 7.57602C6.42347 7.13467 6.47967 5.808 7.2255 5.80433C7.97131 5.80065 8.04055 7.12673 8.64608 7.56214C9.25161 7.99756 10.5307 7.64104 10.7647 8.34923C10.9986 9.0574 9.75887 9.53303 9.53189 10.2435C9.30491 10.9539 10.0392 12.0603 9.43802 12.5016ZM29.5208 12.5016C28.9196 12.943 28.0841 11.9108 27.3383 11.9145C26.5925 11.9182 25.7672 12.9584 25.1617 12.523C24.5562 12.0876 25.2796 10.9741 25.0456 10.2659C24.8117 9.55775 23.5673 9.09433 23.7943 8.38389C24.0213 7.67344 25.3038 8.01737 25.905 7.57602C26.5063 7.13467 26.5625 5.808 27.3083 5.80433C28.0541 5.80065 28.1233 7.12673 28.7289 7.56214C29.3344 7.99756 30.6135 7.64104 30.8475 8.34923C31.0814 9.0574 29.8417 9.53303 29.6147 10.2435C29.3877 10.9539 30.122 12.0603 29.5208 12.5016Z" fill="#005E39" fill-opacity="0.25"/>
</svg>
