<svg width="27" height="27" viewBox="0 0 27 27" fill="none" xmlns="http://www.w3.org/2000/svg">
<path d="M7.90894 0.0944161C6.47253 0.162186 5.49161 0.391417 4.63408 0.728378C3.74658 1.07425 2.99435 1.53838 2.2459 2.28952C1.49746 3.04067 1.03656 3.79343 0.693119 4.68227C0.360746 5.54169 0.135563 6.52341 0.0721126 7.96062C0.00866199 9.39784 -0.00537816 9.85981 0.00164191 13.5259C0.00866198 17.192 0.0248621 17.6515 0.0945228 19.0917C0.163104 20.5278 0.391526 21.5085 0.728489 22.3663C1.0749 23.2537 1.5385 24.0057 2.28991 24.7544C3.04133 25.5031 3.79356 25.9629 4.68457 26.3069C5.54318 26.6387 6.52518 26.865 7.96213 26.9279C9.39909 26.9908 9.8616 27.0054 13.5266 26.9984C17.1916 26.9914 17.6531 26.9752 19.093 26.9069C20.5329 26.8385 21.5084 26.6085 22.3665 26.2732C23.254 25.9259 24.0065 25.4632 24.7547 24.7115C25.5029 23.9598 25.9635 23.2065 26.3067 22.3171C26.6393 21.4585 26.8653 20.4765 26.9277 19.0407C26.9906 17.5997 27.0054 17.1396 26.9984 13.474C26.9914 9.80851 26.9749 9.34897 26.9066 7.90932C26.8383 6.46968 26.6096 5.492 26.2729 4.63367C25.926 3.74618 25.4629 2.99477 24.7118 2.24551C23.9606 1.49626 23.2068 1.03591 22.3176 0.693548C21.4585 0.361177 20.477 0.134646 19.0401 0.072546C17.6031 0.0104458 17.1406 -0.00548424 13.4742 0.00153578C9.80787 0.00855581 9.34887 0.0242159 7.90894 0.0944161ZM8.06662 24.4993C6.75036 24.442 6.03566 24.2233 5.55938 24.0403C4.92865 23.7973 4.47937 23.5035 4.0047 23.0334C3.53004 22.5634 3.23843 22.1125 2.99219 21.4831C2.80724 21.0068 2.58449 20.2929 2.52293 18.9767C2.45597 17.554 2.44193 17.1269 2.4341 13.5226C2.42627 9.9184 2.44004 9.4918 2.50241 8.06862C2.55857 6.75345 2.77862 6.03795 2.96141 5.56194C3.20441 4.9304 3.4971 4.48193 3.96825 4.00754C4.43941 3.53315 4.88896 3.24101 5.51888 2.99477C5.99462 2.80901 6.70851 2.58814 8.02423 2.5255C9.44796 2.458 9.87456 2.4445 13.4783 2.43667C17.082 2.42884 17.5097 2.44234 18.934 2.50498C20.2491 2.56222 20.9649 2.78012 21.4404 2.96399C22.0714 3.20699 22.5204 3.49886 22.9948 3.97082C23.4692 4.44278 23.7616 4.89071 24.0079 5.52198C24.1939 5.99637 24.4147 6.70998 24.4768 8.0265C24.5446 9.45022 24.56 9.87709 24.5665 13.4805C24.573 17.084 24.5603 17.5119 24.4979 18.9345C24.4404 20.2508 24.2222 20.9658 24.0389 21.4426C23.7959 22.073 23.5029 22.5226 23.0315 22.9967C22.5601 23.4708 22.1111 23.763 21.4809 24.0092C21.0057 24.1947 20.291 24.4161 18.9764 24.4787C17.5526 24.5457 17.126 24.5597 13.5209 24.5676C9.91587 24.5754 9.49062 24.5608 8.06689 24.4993M19.0722 6.28473C19.0727 6.60516 19.1683 6.91823 19.3468 7.18435C19.5252 7.45048 19.7786 7.65769 20.0749 7.7798C20.3711 7.9019 20.697 7.93341 21.0111 7.87033C21.3253 7.80726 21.6137 7.65243 21.8398 7.42544C22.066 7.19845 22.2198 6.90948 22.2817 6.59509C22.3436 6.2807 22.3109 5.95501 22.1877 5.65921C22.0645 5.36341 21.8564 5.11078 21.5896 4.93328C21.3228 4.75578 21.0094 4.66138 20.689 4.66202C20.2594 4.66288 19.8478 4.83431 19.5446 5.13861C19.2414 5.44291 19.0715 5.85517 19.0722 6.28473ZM6.56838 13.5135C6.57594 17.3421 9.68529 20.4387 13.5131 20.4314C17.3409 20.4241 20.4398 17.3151 20.4325 13.4865C20.4252 9.65785 17.315 6.5604 13.4867 6.56796C9.65829 6.57552 6.56109 9.68539 6.56838 13.5135ZM9.00002 13.5086C8.99826 12.6186 9.26047 11.748 9.75348 11.007C10.2465 10.266 10.9482 9.68779 11.7698 9.34556C12.5914 9.00333 13.4961 8.91243 14.3693 9.08434C15.2426 9.25624 16.0453 9.68325 16.6759 10.3114C17.3065 10.9395 17.7367 11.7404 17.9121 12.613C18.0874 13.4856 18.0001 14.3906 17.6611 15.2136C17.3222 16.0365 16.7468 16.7405 16.0077 17.2364C15.2686 17.7324 14.3991 17.998 13.5091 17.9998C12.9181 18.001 12.3326 17.8859 11.7862 17.6608C11.2397 17.4358 10.7429 17.1053 10.3242 16.6882C9.9055 16.2712 9.57305 15.7757 9.34584 15.2301C9.11863 14.6846 9.00112 14.0996 9.00002 13.5086Z" fill="white"/>
</svg>
