<svg width="53" height="52" viewBox="0 0 53 52" fill="none" xmlns="http://www.w3.org/2000/svg">
<path d="M26.0411 52C22.0238 52.0063 18.0596 51.0816 14.4596 49.2985C10.8597 47.5153 7.72189 44.9222 5.29252 41.7226C2.86315 38.523 1.20828 34.804 0.457751 30.8573C-0.292774 26.9107 -0.118529 22.8438 0.966812 18.9758C2.05215 15.1078 4.01906 11.5439 6.7132 8.56385C9.40734 5.58376 12.7554 3.26853 16.4947 1.79982C20.234 0.331111 24.2627 -0.251113 28.2648 0.098835C32.2669 0.448783 36.1335 1.72138 39.5611 3.81677C39.8958 4.02233 40.1796 4.30104 40.3911 4.63198C40.6027 4.96292 40.7365 5.33748 40.7825 5.72755C40.8286 6.11761 40.7856 6.51304 40.6569 6.88414C40.5283 7.25523 40.3172 7.59235 40.0395 7.87017L25.2715 22.6382C24.784 23.1256 24.1228 23.3994 23.4333 23.3994C22.7439 23.3994 22.0827 23.1256 21.5951 22.6382L20.8411 21.8764V31.2H30.1647L29.4029 30.4382C28.9155 29.9506 28.6417 29.2894 28.6417 28.6C28.6417 27.9105 28.9155 27.2493 29.4029 26.7618L44.1709 11.9938C44.4471 11.7138 44.7839 11.5011 45.1554 11.3722C45.5269 11.2433 45.9231 11.2015 46.3133 11.2502C46.7037 11.2965 47.0785 11.4308 47.4095 11.6429C47.7405 11.855 48.0191 12.1395 48.2243 12.4748C50.634 16.4135 51.9501 20.9235 52.037 25.5402C52.1238 30.1568 50.9782 34.7131 48.7183 38.7397C46.4584 42.7663 43.1659 46.1176 39.1799 48.4484C35.1939 50.7792 30.6586 52.0051 26.0411 52ZM26.0411 5.19997C21.5781 5.19406 17.2311 6.62189 13.6408 9.27308C10.0505 11.9243 7.40672 15.6586 6.09904 19.9258C4.79137 24.193 4.88894 28.7674 6.37739 32.975C7.86584 37.1825 10.6664 40.8007 14.3665 43.2964C18.0666 45.7921 22.4705 47.0332 26.9293 46.837C31.388 46.6408 35.6659 45.0176 39.1324 42.2065C42.599 39.3954 45.0709 35.5452 46.184 31.2231C47.2971 26.9011 46.9924 22.3358 45.3149 18.2L34.9149 28.6L38.2767 31.9618C38.6401 32.3252 38.8876 32.7882 38.9879 33.2923C39.0883 33.7963 39.037 34.3188 38.8406 34.7937C38.6442 35.2686 38.3114 35.6746 37.8843 35.9605C37.4573 36.2464 36.9551 36.3993 36.4411 36.4H18.2411C17.5516 36.4 16.8902 36.126 16.4026 35.6384C15.9151 35.1509 15.6411 34.4895 15.6411 33.8V15.6C15.6412 15.0858 15.7938 14.5832 16.0795 14.1558C16.3652 13.7283 16.7712 13.3952 17.2462 13.1984C17.7212 13.0017 18.2439 12.9502 18.7482 13.0505C19.2525 13.1507 19.7157 13.3983 20.0793 13.7618L23.4411 17.1236L33.8411 6.72357C31.3646 5.71461 28.7153 5.19713 26.0411 5.19997Z" fill="#067A4B"/>
</svg>
