<svg width="20" height="20" viewBox="0 0 20 20" fill="none" xmlns="http://www.w3.org/2000/svg">
<path d="M8.39984 9.04996C8.4415 8.77496 8.53317 8.53329 8.64984 8.33329C8.89984 7.86663 9.32484 7.62496 9.89984 7.61663C10.2748 7.61663 10.6165 7.78329 10.8582 8.02496C11.0915 8.28329 11.2498 8.64163 11.2498 8.99996H12.7498C12.7332 8.60829 12.6582 8.24996 12.4998 7.91663C12.3748 7.59996 12.1832 7.31663 11.9332 7.08329C10.7248 5.96663 8.48317 6.12496 7.45817 7.39163C6.38317 8.78329 6.35817 11.2166 7.44984 12.6083C8.45817 13.85 10.6665 14.025 11.8665 12.9166C12.1248 12.7083 12.3332 12.45 12.4998 12.15C12.6332 11.85 12.7248 11.5333 12.7332 11.1916H11.2498C11.2498 11.3666 11.1915 11.525 11.1165 11.6666C11.0415 11.825 10.9415 11.95 10.8332 12.0583C10.5582 12.275 10.2332 12.3916 9.88317 12.3916C9.58317 12.3833 9.33317 12.325 9.1415 12.2C8.92547 12.0785 8.75338 11.8918 8.64984 11.6666C8.23317 10.9166 8.29984 9.87496 8.39984 9.04996ZM9.99984 1.66663C5.4165 1.66663 1.6665 5.41663 1.6665 9.99996C2.10817 21.0583 17.9165 21.05 18.3332 9.99996C18.3332 5.41663 14.5832 1.66663 9.99984 1.66663ZM9.99984 16.6666C6.32484 16.6666 3.33317 13.675 3.33317 9.99996C3.69984 1.15829 16.2998 1.15829 16.6665 9.99996C16.6665 13.675 13.6748 16.6666 9.99984 16.6666Z" fill="#B9B9B9"/>
</svg>
