<svg width="16" height="20" viewBox="0 0 16 20" fill="none" xmlns="http://www.w3.org/2000/svg">
<path opacity="0.4" d="M14.2416 7.26929C13.8277 7.26929 13.2795 7.26012 12.5969 7.26012C10.9323 7.26012 9.56358 5.88237 9.56358 4.20212V1.25412C9.56358 1.02221 9.37842 0.833374 9.14879 0.833374H4.30015C2.0374 0.833374 0.208496 2.69054 0.208496 4.96662V14.8437C0.208496 17.2316 2.12453 19.1667 4.48894 19.1667H11.7092C13.9638 19.1667 15.7918 17.3215 15.7918 15.0435V7.68179C15.7918 7.44896 15.6076 7.26104 15.377 7.26196C14.9895 7.26471 14.5248 7.26929 14.2416 7.26929Z" fill="white"/>
<path opacity="0.4" d="M11.7438 1.35342C11.4697 1.06834 10.9912 1.26451 10.9912 1.65959V4.07684C10.9912 5.09067 11.8263 5.92484 12.8401 5.92484C13.479 5.93217 14.3664 5.93401 15.1199 5.93217C15.5058 5.93126 15.702 5.47017 15.4343 5.19151C14.4672 4.18592 12.7356 2.38376 11.7438 1.35342Z" fill="white"/>
<path fill-rule="evenodd" clip-rule="evenodd" d="M5.22643 9.43865H8.32935C8.7061 9.43865 9.01227 9.1334 9.01227 8.75665C9.01227 8.3799 8.7061 8.07373 8.32935 8.07373H5.22643C4.84968 8.07373 4.54443 8.3799 4.54443 8.75665C4.54443 9.1334 4.84968 9.43865 5.22643 9.43865ZM5.22653 14.0167H10.2169C10.5936 14.0167 10.8998 13.7114 10.8998 13.3347C10.8998 12.9579 10.5936 12.6517 10.2169 12.6517H5.22653C4.84978 12.6517 4.54453 12.9579 4.54453 13.3347C4.54453 13.7114 4.84978 14.0167 5.22653 14.0167Z" fill="white"/>
</svg>
