<svg width="22" height="22" viewBox="0 0 22 22" fill="none" xmlns="http://www.w3.org/2000/svg">
<path opacity="0.4" d="M17.2416 8.26929C16.8277 8.26929 16.2795 8.26012 15.5969 8.26012C13.9323 8.26012 12.5636 6.88237 12.5636 5.20212V2.25412C12.5636 2.02221 12.3784 1.83337 12.1488 1.83337H7.30015C5.0374 1.83337 3.2085 3.69054 3.2085 5.96662V15.8437C3.2085 18.2316 5.12453 20.1667 7.48894 20.1667H14.7092C16.9638 20.1667 18.7918 18.3215 18.7918 16.0435V8.68179C18.7918 8.44896 18.6076 8.26104 18.377 8.26196C17.9895 8.26471 17.5248 8.26929 17.2416 8.26929Z" fill="#005E39"/>
<path opacity="0.4" d="M14.7438 2.35342C14.4697 2.06834 13.9912 2.26451 13.9912 2.65959V5.07684C13.9912 6.09067 14.8263 6.92484 15.8401 6.92484C16.479 6.93217 17.3664 6.93401 18.1199 6.93217C18.5058 6.93126 18.702 6.47017 18.4343 6.19151C17.4672 5.18592 15.7356 3.38376 14.7438 2.35342Z" fill="#005E39"/>
<path fill-rule="evenodd" clip-rule="evenodd" d="M8.22643 10.4386H11.3294C11.7061 10.4386 12.0123 10.1334 12.0123 9.75665C12.0123 9.3799 11.7061 9.07373 11.3294 9.07373H8.22643C7.84968 9.07373 7.54443 9.3799 7.54443 9.75665C7.54443 10.1334 7.84968 10.4386 8.22643 10.4386ZM8.22653 15.0167H13.2169C13.5936 15.0167 13.8998 14.7114 13.8998 14.3347C13.8998 13.9579 13.5936 13.6517 13.2169 13.6517H8.22653C7.84978 13.6517 7.54453 13.9579 7.54453 14.3347C7.54453 14.7114 7.84978 15.0167 8.22653 15.0167Z" fill="#005E39"/>
</svg>
