<svg width="25" height="25" viewBox="0 0 25 25" fill="none" xmlns="http://www.w3.org/2000/svg">
<path d="M12.5906 0.419434C5.86884 0.419434 0.419312 5.86896 0.419312 12.5907C0.419312 17.7497 3.62492 22.1574 8.15283 23.9305C8.04264 22.9689 7.95248 21.4863 8.1929 20.4344C8.41329 19.4828 9.61539 14.3838 9.61539 14.3838C9.61539 14.3838 9.25476 13.6526 9.25476 12.5807C9.25476 10.8877 10.2365 9.62553 11.4586 9.62553C12.5004 9.62553 13.0013 10.4069 13.0013 11.3385C13.0013 12.3803 12.3402 13.9431 11.9895 15.3956C11.699 16.6077 12.6006 17.5995 13.7927 17.5995C15.9565 17.5995 17.6194 15.3155 17.6194 12.0297C17.6194 9.11464 15.5257 7.08108 12.5305 7.08108C9.06443 7.08108 7.03087 9.67562 7.03087 12.3603C7.03087 13.4021 7.43157 14.5241 7.93245 15.1352C8.03262 15.2554 8.04264 15.3656 8.01259 15.4858C7.92243 15.8664 7.71206 16.6979 7.67199 16.8682C7.6219 17.0886 7.49168 17.1387 7.26127 17.0285C5.73861 16.3172 4.78695 14.1034 4.78695 12.3102C4.78695 8.47352 7.57182 4.94735 12.831 4.94735C17.0484 4.94735 20.3341 7.9526 20.3341 11.9796C20.3341 16.177 17.6895 19.5529 14.0231 19.5529C12.7909 19.5529 11.6289 18.9118 11.2382 18.1504C11.2382 18.1504 10.6272 20.4745 10.4769 21.0455C10.2064 22.1074 9.46513 23.4297 8.96425 24.2411C10.1062 24.5917 11.3083 24.782 12.5706 24.782C19.2923 24.782 24.7418 19.3325 24.7418 12.6107C24.7619 5.86896 19.3123 0.419434 12.5906 0.419434Z" fill="white"/>
</svg>
