<svg width="20" height="20" viewBox="0 0 20 20" fill="none" xmlns="http://www.w3.org/2000/svg">
<path opacity="0.4" d="M13.3757 2.08337H5.88554C3.15343 2.08337 1.60547 3.61041 1.60547 6.3056V13.6945C1.60547 16.3826 3.14629 17.9167 5.88554 17.9167H13.3757C16.1078 17.9167 17.6557 16.3826 17.6557 13.6945V6.3056C17.6557 3.61041 16.1078 2.08337 13.3757 2.08337Z" fill="white"/>
<path d="M12.2957 10.5608H10.2324V12.5785C10.2324 12.9034 9.96315 13.1667 9.63095 13.1667C9.29875 13.1667 9.02945 12.9034 9.02945 12.5785V10.5608H6.96624C6.65637 10.5294 6.4209 10.2741 6.4209 9.96942C6.4209 9.66477 6.65637 9.40941 6.96624 9.37803H9.02298V7.36668C9.05507 7.06365 9.31619 6.83337 9.62772 6.83337C9.93924 6.83337 10.2004 7.06365 10.2324 7.36668V9.37803H12.2957C12.6055 9.40941 12.841 9.66477 12.841 9.96942C12.841 10.2741 12.6055 10.5294 12.2957 10.5608Z" fill="white"/>
</svg>
