<svg width="66" height="49" viewBox="0 0 66 49" fill="none" xmlns="http://www.w3.org/2000/svg">
<path d="M65.6439 12.1788L65.5617 11.629L65.4761 11.6486C64.8915 8.92885 63.5447 6.42936 61.5915 4.43933C59.6384 2.44929 57.1588 1.05006 54.4396 0.403506C51.7203 -0.243043 48.8726 -0.110476 46.226 0.785871C43.5794 1.68222 41.2419 3.30571 39.4841 5.46849C37.7264 7.63128 36.6201 10.245 36.2934 13.0071C35.9666 15.7693 36.4327 18.567 37.6378 21.0767C38.8428 23.5863 40.7375 25.7052 43.1027 27.1883C45.4679 28.6713 48.2068 29.4579 51.0026 29.4569C51.7364 29.4569 52.4405 29.3457 53.1413 29.2442C52.9142 30.0035 52.6806 30.776 52.3056 31.4698C51.9305 32.4779 51.3448 33.3518 50.7625 34.2322C50.2755 35.1847 49.4168 35.8295 48.7851 36.6444C48.1237 37.4365 47.2222 37.9635 46.5083 38.6213C45.8075 39.3087 44.8895 39.6523 44.1591 40.1367C43.3958 40.572 42.7312 41.0532 42.0205 41.2823L40.2471 42.0089L38.6875 42.6537L40.28 49L42.2442 48.5287C42.8726 48.3716 43.6392 48.1883 44.5111 47.969C45.4028 47.8054 46.3536 47.357 47.4131 46.9478C48.4561 46.4798 49.6701 46.1689 50.7954 45.4193C51.9272 44.7058 53.2334 44.1101 54.3849 43.1544C55.5003 42.1693 56.846 41.315 57.8396 40.0647C58.9254 38.893 59.998 37.6623 60.8304 36.2615C61.7944 34.9261 62.4492 33.4598 63.1401 32.0099C63.7652 30.5599 64.2686 29.0773 64.6799 27.6372C65.4597 24.7504 65.8084 22.0076 65.9433 19.6609C66.0552 17.3109 65.9894 15.3569 65.8512 13.943C65.805 13.3525 65.7358 12.764 65.6439 12.1788ZM29.452 12.1788L29.3698 11.629L29.2842 11.6486C28.6996 8.92885 27.3528 6.42936 25.3997 4.43933C23.4465 2.44929 20.9669 1.05006 18.2477 0.403506C15.5284 -0.243043 12.6808 -0.110476 10.0341 0.785871C7.38746 1.68222 5.05003 3.30571 3.29226 5.46849C1.53449 7.63128 0.428226 10.245 0.101472 13.0071C-0.225281 15.7693 0.24083 18.567 1.44587 21.0767C2.65092 23.5863 4.54564 25.7052 6.91081 27.1883C9.27599 28.6713 12.0149 29.4579 14.8108 29.4569C15.5445 29.4569 16.2486 29.3457 16.9494 29.2442C16.7223 30.0035 16.4887 30.776 16.1137 31.4698C15.7386 32.4779 15.1529 33.3518 14.5706 34.2322C14.0836 35.1847 13.2249 35.8295 12.5932 36.6444C11.9319 37.4365 11.0304 37.9635 10.3164 38.6213C9.61558 39.3087 8.69762 39.6523 7.9672 40.1367C7.20388 40.572 6.53927 41.0532 5.82859 41.2823L4.05519 42.0089C3.06485 42.4115 2.49894 42.6471 2.49894 42.6471L4.09138 48.9935L6.05561 48.5221C6.68404 48.365 7.45065 48.1817 8.32254 47.9625C9.21418 47.7988 10.165 47.3504 11.2245 46.9413C12.2675 46.4732 13.4815 46.1623 14.6068 45.4128C15.7386 44.6993 17.0448 44.1036 18.1963 43.1479C19.3117 42.1627 20.6574 41.3085 21.651 40.0582C22.7368 38.8864 23.8094 37.6558 24.6418 36.255C25.6058 34.9196 26.2606 33.4533 26.9515 32.0033C27.5766 30.5534 28.08 29.0707 28.4913 27.6306C29.2711 24.7438 29.6198 22.0011 29.7547 19.6543C29.8666 17.3043 29.8008 15.3503 29.6626 13.9364C29.6135 13.3482 29.5432 12.762 29.452 12.1788Z" fill="#005E39" fill-opacity="0.37"/>
</svg>
