<svg width="52" height="52" viewBox="0 0 52 52" fill="none" xmlns="http://www.w3.org/2000/svg">
<g clip-path="url(#clip0_83_1730)">
<path d="M26 52C40.3594 52 52 40.3594 52 26C52 11.6406 40.3594 0 26 0C11.6406 0 0 11.6406 0 26C0 40.3594 11.6406 52 26 52Z" fill="#EF212E"/>
<g clip-path="url(#clip1_83_1730)">
<path d="M35.3337 24.25H34.167V19H17.8337V24.25H16.667V18.4167C16.667 18.262 16.7285 18.1136 16.8378 18.0042C16.9472 17.8948 17.0956 17.8334 17.2503 17.8334H34.7503C34.905 17.8334 35.0534 17.8948 35.1628 18.0042C35.2722 18.1136 35.3337 18.262 35.3337 18.4167V24.25Z" fill="white"/>
<path d="M14.3337 21.9167H13.167V39.4167H14.3337V21.9167Z" fill="white"/>
<path d="M38.8337 21.9167H37.667V39.4167H38.8337V21.9167Z" fill="white"/>
<path d="M35.333 40.0001H16.6663C16.5116 40.0001 16.3633 39.9386 16.2539 39.8292C16.1445 39.7198 16.083 39.5715 16.083 39.4167V37.6667C16.083 37.2026 16.2674 36.7575 16.5956 36.4293C16.9238 36.1011 17.3689 35.9167 17.833 35.9167H34.1663C34.6305 35.9167 35.0756 36.1011 35.4038 36.4293C35.732 36.7575 35.9163 37.2026 35.9163 37.6667V39.4167C35.9163 39.5715 35.8549 39.7198 35.7455 39.8292C35.6361 39.9386 35.4877 40.0001 35.333 40.0001ZM17.2497 38.8334H34.7497V37.6667C34.7497 37.512 34.6882 37.3637 34.5788 37.2543C34.4694 37.1449 34.3211 37.0834 34.1663 37.0834H17.833C17.6783 37.0834 17.5299 37.1449 17.4205 37.2543C17.3111 37.3637 17.2497 37.512 17.2497 37.6667V38.8334Z" fill="white"/>
<path d="M37.083 19H14.9164C14.7868 18.9994 14.6611 18.9556 14.5591 18.8756C14.4572 18.7956 14.3848 18.6839 14.3534 18.5582C14.3219 18.4325 14.3333 18.2998 14.3856 18.1813C14.4379 18.0627 14.5282 17.9649 14.6422 17.9034L25.7255 12.07C25.8099 12.0251 25.9041 12.0016 25.9997 12.0016C26.0953 12.0016 26.1895 12.0251 26.2739 12.07L37.3572 17.9034C37.4713 17.9649 37.5616 18.0627 37.6139 18.1813C37.6662 18.2998 37.6775 18.4325 37.6461 18.5582C37.6146 18.6839 37.5422 18.7956 37.4403 18.8756C37.3383 18.9556 37.2126 18.9994 37.083 19ZM17.2789 17.8334H34.7497L25.9997 13.2425L17.2789 17.8334Z" fill="white"/>
<path d="M35.3335 27.1666H16.6668C16.5362 27.1659 16.4096 27.1213 16.3073 27.04C16.2051 26.9587 16.133 26.8455 16.1028 26.7184C16.0725 26.5914 16.0858 26.4578 16.1405 26.3392C16.1951 26.2206 16.288 26.1237 16.4043 26.0641L25.7376 21.3975C25.819 21.3565 25.9089 21.3351 26.0001 21.3351C26.0913 21.3351 26.1812 21.3565 26.2626 21.3975L35.596 26.0641C35.7122 26.1237 35.8051 26.2206 35.8598 26.3392C35.9145 26.4578 35.9277 26.5914 35.8975 26.7184C35.8672 26.8455 35.7952 26.9587 35.6929 27.04C35.5907 27.1213 35.4641 27.1659 35.3335 27.1666ZM19.1401 26H32.8601L26.0001 22.57L19.1401 26Z" fill="white"/>
<path d="M40 38.8334H12V40H40V38.8334Z" fill="white"/>
<path d="M31.8337 27.75H30.667V35.3333H31.8337V27.75Z" fill="white"/>
<path d="M35.3337 27.75H34.167V35.3333H35.3337V27.75Z" fill="white"/>
<path d="M17.8337 27.75H16.667V35.3333H17.8337V27.75Z" fill="white"/>
<path d="M28.3337 27.75H27.167V35.3333H28.3337V27.75Z" fill="white"/>
<path d="M24.8337 27.75H23.667V35.3333H24.8337V27.75Z" fill="white"/>
<path d="M21.3337 27.75H20.167V35.3333H21.3337V27.75Z" fill="white"/>
<path d="M39.4167 21.3334H34.75V22.5H39.4167V21.3334Z" fill="white"/>
<path d="M17.2497 21.3334H12.583V22.5H17.2497V21.3334Z" fill="white"/>
</g>
</g>
<defs>
<clipPath id="clip0_83_1730">
<rect width="52" height="52" fill="white"/>
</clipPath>
<clipPath id="clip1_83_1730">
<rect width="28" height="28" fill="white" transform="translate(12 12)"/>
</clipPath>
</defs>
</svg>
