<svg width="52" height="52" viewBox="0 0 52 52" fill="none" xmlns="http://www.w3.org/2000/svg">
<path d="M30.2881 11.7967C30.2881 11.7967 18.8245 10.4723 13.0606 9.80603C11.2772 9.59965 9.66518 10.8785 9.45881 12.6612C9.17687 15.0995 8.83887 18.0285 8.83887 18.0285" stroke="#005E39" stroke-width="2" stroke-miterlimit="2" stroke-linecap="round" stroke-linejoin="round"/>
<path d="M12.1885 16.5783C12.1885 16.5783 12.329 15.3668 12.4501 14.3179C12.4964 13.9181 12.6995 13.5525 13.0148 13.3031C13.33 13.0528 13.7314 12.9383 14.1312 12.9846C15.2386 13.1121 16.5492 13.2641 16.5492 13.2641" stroke="#005E39" stroke-width="2" stroke-miterlimit="2" stroke-linecap="round" stroke-linejoin="round"/>
<path d="M43.8747 36.7242C44.5767 36.5219 45.1942 36.0872 45.6216 35.4868C46.1212 34.784 46.3219 33.9122 46.1789 33.0623C45.407 28.4822 43.9974 20.1127 43.2263 15.5326C43.0833 14.6827 42.608 13.9238 41.906 13.4242C41.204 12.9245 40.3314 12.7238 39.4815 12.8676C32.4135 14.0579 15.5542 16.8976 8.48543 18.0879C7.63555 18.2309 6.87749 18.7054 6.3778 19.4082C5.87811 20.1102 5.67743 20.982 5.82043 21.8327C6.5923 26.4128 8.00199 34.7815 8.77305 39.3624C8.91605 40.2123 9.39136 40.9703 10.0934 41.47C10.7954 41.9697 11.668 42.1704 12.5179 42.0274C16.1164 41.4213 21.1287 40.5771 27.2184 39.5509" stroke="#005E39" stroke-width="2" stroke-miterlimit="2" stroke-linecap="round" stroke-linejoin="round"/>
<path d="M15.8223 38.3931C15.8223 38.3931 14.6027 38.5987 13.5286 38.7799C13.1037 38.8514 12.6674 38.7514 12.3163 38.5012C11.9653 38.2509 11.7281 37.8723 11.6558 37.4474C11.4852 36.4317 11.2958 35.3089 11.2958 35.3089M36.177 16.5011C36.177 16.5011 37.3966 16.2955 38.4707 16.1152C38.8957 16.0429 39.332 16.1436 39.683 16.393C40.034 16.6433 40.2712 17.0227 40.3435 17.4477C40.5142 18.4625 40.7035 19.5854 40.7035 19.5854M9.53191 24.8357C9.53191 24.8357 9.3426 23.7129 9.17197 22.6972C9.10047 22.2723 9.20041 21.836 9.45066 21.485C9.7001 21.134 10.0795 20.8967 10.5045 20.8252C11.5786 20.644 12.7982 20.4385 12.7982 20.4385" stroke="#005E39" stroke-width="2" stroke-miterlimit="2" stroke-linecap="round" stroke-linejoin="round"/>
<path d="M26.9924 24.2027C26.5747 23.8062 25.9816 23.6039 25.3706 23.7063C24.3379 23.8802 23.6408 24.86 23.8147 25.8919C23.9886 26.9238 24.9684 27.6209 26.0003 27.447C27.0322 27.2732 28.0121 27.9703 28.1859 29.0022C28.3598 30.0348 27.6627 31.0139 26.63 31.1878C26.019 31.291 25.4259 31.0878 25.0082 30.6913" stroke="#005E39" stroke-width="2" stroke-miterlimit="2" stroke-linecap="round" stroke-linejoin="round"/>
<path d="M25.3699 23.7063L25.1172 22.2104" stroke="#005E39" stroke-width="2" stroke-miterlimit="2" stroke-linecap="round" stroke-linejoin="round"/>
<path d="M26.8826 32.6837L26.6299 31.1879" stroke="#005E39" stroke-width="2" stroke-miterlimit="2" stroke-linecap="round" stroke-linejoin="round"/>
<path fill-rule="evenodd" clip-rule="evenodd" d="M43.875 34.125C43.875 32.7787 42.7838 31.6875 41.4375 31.6875C39.1146 31.6875 35.6354 31.6875 33.3125 31.6875C31.9662 31.6875 30.875 32.7787 30.875 34.125C30.875 35.6704 30.875 37.7057 30.875 39.4826C30.875 41.9039 32.3082 44.096 34.5272 45.0661C36.0076 45.7145 37.375 46.3125 37.375 46.3125C37.375 46.3125 38.7424 45.7145 40.2228 45.0661C42.4418 44.096 43.875 41.9039 43.875 39.4826C43.875 37.7057 43.875 35.6704 43.875 34.125Z" stroke="#005E39" stroke-width="2" stroke-miterlimit="2" stroke-linecap="round" stroke-linejoin="round"/>
<path d="M34.7344 38.389L36.7656 40.014L40.0156 37.1703" stroke="#005E39" stroke-width="2" stroke-miterlimit="2" stroke-linecap="round" stroke-linejoin="round"/>
</svg>
