<svg width="52" height="52" viewBox="0 0 52 52" fill="none" xmlns="http://www.w3.org/2000/svg">
<g clip-path="url(#clip0_39_4415)">
<path d="M26 52C40.3594 52 52 40.3594 52 26C52 11.6406 40.3594 0 26 0C11.6406 0 0 11.6406 0 26C0 40.3594 11.6406 52 26 52Z" fill="#005E39"/>
<path fill-rule="evenodd" clip-rule="evenodd" d="M35.9157 26.5921H39.0286V27.7766H35.9157V29.2254C35.9157 29.8253 35.7138 30.4314 35.3929 30.9355C35.0691 31.444 34.5976 31.8868 34.0345 32.1154L32.4975 32.7391H39.0286V33.9236H29.579L14.0679 40.2187H38.2911C38.8202 40.2187 39.3008 40.0026 39.6489 39.6546C39.9969 39.3065 40.213 38.8259 40.213 38.2968V22.3893C40.213 21.8602 39.9969 21.3795 39.6489 21.0315C39.3008 20.6834 38.8202 20.4674 38.2911 20.4674H35.9157V26.5921H35.9157Z" fill="#FFFFFE"/>
<path fill-rule="evenodd" clip-rule="evenodd" d="M29.3516 20.113L33.4482 18.1899L33.4472 18.1878C33.7433 18.0488 34.096 18.1762 34.235 18.4723C34.2748 18.5571 34.2927 18.6466 34.2911 18.7343V22.8694C34.2911 23.1255 34.1284 23.3437 33.9008 23.4263L29.8042 25.3494L29.8051 25.3515C29.5091 25.4904 29.1564 25.3631 29.0174 25.067C28.9776 24.9822 28.9596 24.8928 28.9613 24.805V20.6699C28.9613 20.4137 29.1239 20.1955 29.3516 20.113ZM35.3236 29.2253V13.3179C35.3236 13.0653 35.2784 12.8346 35.1966 12.633C35.0915 12.374 34.9262 12.1647 34.7161 12.0168C34.4986 11.8637 34.2423 11.7812 33.9628 11.7812C33.7721 11.7812 33.5716 11.8205 33.3677 11.9032L12.1857 20.4999C11.9538 20.5802 11.7872 20.8004 11.7872 21.0596V39.6148C11.7856 39.6928 11.7995 39.7723 11.8307 39.8491C11.9537 40.1522 12.2991 40.2981 12.6022 40.1751L12.6019 40.1745L33.8118 31.5666C34.2408 31.3925 34.6231 31.0419 34.8934 30.6175C35.1588 30.2006 35.3236 29.7029 35.3236 29.2253Z" fill="#FFFFFE"/>
</g>
<defs>
<clipPath id="clip0_39_4415">
<rect width="52" height="52" fill="white"/>
</clipPath>
</defs>
</svg>
