<svg width="35" height="35" viewBox="0 0 35 35" fill="none" xmlns="http://www.w3.org/2000/svg">
<path fill-rule="evenodd" clip-rule="evenodd" d="M17.5 33.2227C13.1668 30.457 9.66477 26.568 7.36681 21.9697C5.06885 17.3713 4.06097 12.2359 4.4505 7.11013C9.27349 6.83832 13.867 4.96115 17.5 1.77734C21.133 4.96119 25.7267 6.83837 30.5498 7.11013C30.9393 12.2359 29.9313 17.3714 27.6333 21.9697C25.3353 26.568 21.8332 30.4571 17.5 33.2227Z" fill="#005E39"/>
<path fill-rule="evenodd" clip-rule="evenodd" d="M25.8377 18.9712H24.3025C24.1253 19.788 23.8025 20.5663 23.3493 21.2687L24.4354 22.3547C23.8678 23.1637 23.1637 23.8677 22.3547 24.4353L21.2698 23.3503C20.5667 23.8022 19.7881 24.1242 18.9713 24.3009V25.8376C17.9978 26.0079 17.0023 26.0079 16.0289 25.8376V24.3024C15.212 24.1252 14.4338 23.8023 13.7314 23.3492L12.6454 24.4353C11.8364 23.8677 11.1324 23.1637 10.5648 22.3547L11.6498 21.2697C11.1979 20.5666 10.8759 19.7881 10.6992 18.9712H9.1625C8.99222 17.9978 8.99222 17.0022 9.1625 16.0288H10.6992C10.8759 15.2119 11.1979 14.4334 11.6498 13.7303L10.5648 12.6453C11.1324 11.8363 11.8364 11.1323 12.6454 10.5647L13.7314 11.6508C14.4338 11.1977 15.212 10.8748 16.0289 10.6976V9.16241C17.0023 8.9921 17.9978 8.9921 18.9713 9.16241V10.6991C19.7881 10.8758 20.5667 11.1978 21.2698 11.6497L22.3548 10.5647C23.1638 11.1323 23.8678 11.8363 24.4354 12.6453L23.3493 13.7313C23.8024 14.4337 24.1253 15.212 24.3025 16.0288H25.8377C26.0078 17.0022 26.0078 17.9978 25.8377 18.9712ZM22.2951 17.5C22.2951 16.5516 22.0139 15.6246 21.487 14.836C20.9601 14.0475 20.2112 13.4329 19.3351 13.07C18.4589 12.7071 17.4948 12.6121 16.5647 12.7971C15.6345 12.9821 14.7801 13.4388 14.1095 14.1094C13.4389 14.78 12.9823 15.6344 12.7972 16.5645C12.6122 17.4946 12.7072 18.4587 13.0701 19.3349C13.433 20.2111 14.0476 20.96 14.8361 21.4869C15.6246 22.0138 16.5517 22.295 17.5 22.295C18.7717 22.295 19.9914 21.7898 20.8906 20.8906C21.7899 19.9913 22.2951 18.7717 22.2951 17.5Z" fill="white"/>
</svg>
