<svg width="22" height="22" viewBox="0 0 22 22" fill="none" xmlns="http://www.w3.org/2000/svg">
<path opacity="0.4" d="M6.1468 11.8163C5.67369 11.8163 5.2907 12.205 5.2907 12.6851L5.05469 16.8823C5.05469 17.4942 5.54388 17.9895 6.1468 17.9895C6.74971 17.9895 7.23783 17.4942 7.23783 16.8823L7.00289 12.6851C7.00289 12.205 6.6199 11.8163 6.1468 11.8163Z" fill="#005E39"/>
<path d="M7.3155 3.36733C7.3155 3.36733 7.06983 3.11473 6.91749 3.00477C6.6965 2.83492 6.424 2.75 6.15259 2.75C5.84791 2.75 5.56469 2.84581 5.33404 3.02654C5.2922 3.06901 5.11412 3.22905 4.96714 3.37821C4.04454 4.25031 2.53511 6.52691 2.0738 7.7191C2.00085 7.89983 1.84315 8.35711 1.8335 8.60208C1.8335 8.83508 1.88499 9.05936 1.99012 9.27167C2.1371 9.53733 2.36775 9.75072 2.64024 9.86722C2.82905 9.94235 3.39442 10.0588 3.40515 10.0588C4.02415 10.1764 5.03044 10.2396 6.14186 10.2396C7.20071 10.2396 8.16516 10.1764 8.79382 10.0806C8.80455 10.0697 9.50616 9.95323 9.74754 9.82476C10.1874 9.59068 10.4609 9.1334 10.4609 8.64454V8.60208C10.4502 8.28308 10.1767 7.6124 10.167 7.6124C9.7057 6.48445 8.26922 4.2612 7.3155 3.36733Z" fill="#005E39"/>
<path opacity="0.4" d="M15.8538 10.1838C16.3269 10.1838 16.7099 9.79508 16.7099 9.31493L16.9449 5.11767C16.9449 4.50577 16.4567 4.01038 15.8538 4.01038C15.2509 4.01038 14.7617 4.50577 14.7617 5.11767L14.9977 9.31493C14.9977 9.79508 15.3807 10.1838 15.8538 10.1838Z" fill="#005E39"/>
<path d="M20.0104 12.7282C19.8634 12.4625 19.6327 12.2502 19.3603 12.1326C19.1714 12.0575 18.605 11.941 18.5954 11.941C17.9763 11.8234 16.9701 11.7603 15.8586 11.7603C14.7998 11.7603 13.8353 11.8234 13.2067 11.9192C13.196 11.9301 12.4943 12.0477 12.253 12.1751C11.812 12.4092 11.5396 12.8665 11.5396 13.3564V13.3989C11.5503 13.7179 11.8228 14.3875 11.8335 14.3875C12.2948 15.5155 13.7302 17.7398 14.685 18.6327C14.685 18.6327 14.9307 18.8852 15.083 18.9941C15.3029 19.1651 15.5754 19.25 15.849 19.25C16.1526 19.25 16.4347 19.1542 16.6665 18.9734C16.7083 18.931 16.8864 18.7709 17.0334 18.6229C17.9549 17.7496 19.4654 15.473 19.9256 14.2819C19.9996 14.1011 20.1573 13.6428 20.167 13.3989C20.167 13.1648 20.1155 12.9405 20.0104 12.7282Z" fill="#005E39"/>
</svg>
