<svg width="24" height="20" viewBox="0 0 24 20" fill="none" xmlns="http://www.w3.org/2000/svg">
<path d="M21.3377 5.53408C21.352 5.74151 21.352 5.94894 21.352 6.15828C21.352 12.537 16.5055 19.8936 7.64334 19.8936V19.8897C5.02543 19.8936 2.46191 19.1422 0.258057 17.7256C0.638721 17.7715 1.02129 17.7944 1.40482 17.7954C3.57432 17.7973 5.68182 17.0679 7.38861 15.7249C5.32691 15.6857 3.51899 14.3388 2.88741 12.3726C3.60962 12.5121 4.35378 12.4835 5.06264 12.2894C2.8149 11.8344 1.19779 9.85569 1.19779 7.55771C1.19779 7.53668 1.19779 7.51661 1.19779 7.49654C1.86753 7.87029 2.61742 8.07772 3.38447 8.10066C1.26744 6.68307 0.61487 3.86126 1.89329 1.65505C4.33947 4.6709 7.94863 6.50431 11.823 6.69836C11.4347 5.02172 11.9652 3.26478 13.2169 2.08616C15.1574 0.25848 18.2094 0.352158 20.0335 2.2955C21.1126 2.08233 22.1468 1.68564 23.0932 1.12357C22.7335 2.24101 21.9808 3.19022 20.9752 3.79339C21.9302 3.68059 22.8633 3.42441 23.7419 3.03345C23.0951 4.00464 22.2803 4.85061 21.3377 5.53408Z" fill="white"/>
</svg>
